G04 #@! TF.GenerationSoftware,KiCad,Pcbnew,(5.1.0)-1*
G04 #@! TF.CreationDate,2020-07-30T12:22:47+01:00*
G04 #@! TF.ProjectId,AirQualityLuftDaten,41697251-7561-46c6-9974-794c75667444,rev?*
G04 #@! TF.SameCoordinates,Original*
G04 #@! TF.FileFunction,Profile,NP*
%FSLAX46Y46*%
G04 Gerber Fmt 4.6, Leading zero omitted, Abs format (unit mm)*
G04 Created by KiCad (PCBNEW (5.1.0)-1) date 2020-07-30 12:22:47*
%MOMM*%
%LPD*%
G04 APERTURE LIST*
%ADD10C,0.100000*%
G04 APERTURE END LIST*
D10*
X110574694Y-59726842D02*
X110073950Y-59752163D01*
X110073950Y-59752163D02*
X109587158Y-59826577D01*
X109587158Y-59826577D02*
X109117936Y-59946983D01*
X109117936Y-59946983D02*
X108667317Y-60111314D01*
X108667317Y-60111314D02*
X108238920Y-60316470D01*
X108238920Y-60316470D02*
X107834810Y-60560899D01*
X107834810Y-60560899D02*
X107457572Y-60840985D01*
X107457572Y-60840985D02*
X107109273Y-61154661D01*
X107109273Y-61154661D02*
X106792496Y-61499860D01*
X106792496Y-61499860D02*
X106509826Y-61872964D01*
X106509826Y-61872964D02*
X106263847Y-62272423D01*
X106263847Y-62272423D02*
X106056624Y-62695136D01*
X106056624Y-62695136D02*
X105891259Y-63138519D01*
X105891259Y-63138519D02*
X105769303Y-63600507D01*
X105769303Y-63600507D02*
X105693856Y-64077997D01*
X105693856Y-64077997D02*
X105667500Y-64568923D01*
X105667500Y-64568923D02*
X105536759Y-124753364D01*
X105536759Y-124753364D02*
X105562080Y-125254625D01*
X105562080Y-125254625D02*
X105636494Y-125740900D01*
X105636494Y-125740900D02*
X105756900Y-126210639D01*
X105756900Y-126210639D02*
X105921748Y-126660740D01*
X105921748Y-126660740D02*
X106127937Y-127088622D01*
X106127937Y-127088622D02*
X106373400Y-127492214D01*
X106373400Y-127492214D02*
X106655553Y-127868936D01*
X106655553Y-127868936D02*
X106971813Y-128216202D01*
X106971813Y-128216202D02*
X107320112Y-128531945D01*
X107320112Y-128531945D02*
X107697350Y-128812546D01*
X107697350Y-128812546D02*
X108100943Y-129056976D01*
X108100943Y-129056976D02*
X108529341Y-129261615D01*
X108529341Y-129261615D02*
X108979959Y-129424395D01*
X108979959Y-129424395D02*
X109449181Y-129543251D01*
X109449181Y-129543251D02*
X109935973Y-129615083D01*
X109935973Y-129615083D02*
X110436718Y-129637308D01*
X110436718Y-129637308D02*
X160674478Y-129526720D01*
X160674478Y-129526720D02*
X160674478Y-119726802D01*
X160674478Y-119726802D02*
X175474608Y-119726802D01*
X175474608Y-119726802D02*
X175474608Y-91777082D01*
X175474608Y-91777082D02*
X169574710Y-91777082D01*
X169574710Y-91777082D02*
X169574710Y-84076778D01*
X169574710Y-84076778D02*
X175474608Y-84076778D01*
X175474608Y-84076778D02*
X175474608Y-64626801D01*
X175474608Y-64626801D02*
X175466353Y-64374620D01*
X175466353Y-64374620D02*
X175442065Y-64126057D01*
X175442065Y-64126057D02*
X175401758Y-63880594D01*
X175401758Y-63880594D02*
X175347497Y-63639265D01*
X175347497Y-63639265D02*
X175198153Y-63170043D01*
X175198153Y-63170043D02*
X175000232Y-62719424D01*
X175000232Y-62719424D02*
X174760453Y-62291543D01*
X174760453Y-62291543D02*
X174485019Y-61887434D01*
X174485019Y-61887434D02*
X174180645Y-61510196D01*
X174180645Y-61510196D02*
X173854565Y-61161897D01*
X173854565Y-61161897D02*
X173511950Y-60845637D01*
X173511950Y-60845637D02*
X173160033Y-60564001D01*
X173160033Y-60564001D02*
X172805534Y-60318537D01*
X172805534Y-60318537D02*
X172455167Y-60111832D01*
X172455167Y-60111832D02*
X172114104Y-59946984D01*
X172114104Y-59946984D02*
X171790608Y-59826578D01*
X171790608Y-59826578D02*
X171489851Y-59752164D01*
X171489851Y-59752164D02*
X171219068Y-59726843D01*
X171219068Y-59726843D02*
X110574694Y-59726842D01*
X110574694Y-59726842D02*
X110574694Y-59726842D01*
M02*
