M48
; DRILL file {KiCad (6.0.6)} date Thu Sep  7 11:34:42 2023
; FORMAT={-:-/ absolute / inch / decimal}
; #@! TF.CreationDate,2023-09-07T11:34:42+01:00
; #@! TF.GenerationSoftware,Kicad,Pcbnew,(6.0.6)
; #@! TF.FileFunction,MixedPlating,1,2
FMAT,2
INCH
; #@! TA.AperFunction,Plated,PTH,ViaDrill
T1C0.0157
; #@! TA.AperFunction,Plated,PTH,ComponentDrill
T2C0.0236
; #@! TA.AperFunction,Plated,PTH,ComponentDrill
T3C0.0315
; #@! TA.AperFunction,Plated,PTH,ComponentDrill
T4C0.0315
; #@! TA.AperFunction,Plated,PTH,ComponentDrill
T5C0.0320
; #@! TA.AperFunction,Plated,PTH,ComponentDrill
T6C0.0394
; #@! TA.AperFunction,Plated,PTH,ComponentDrill
T7C0.0394
; #@! TA.AperFunction,Plated,PTH,ComponentDrill
T8C0.0400
; #@! TA.AperFunction,Plated,PTH,ComponentDrill
T9C0.1142
; #@! TA.AperFunction,NonPlated,NPTH,ComponentDrill
T10C0.0300
; #@! TA.AperFunction,NonPlated,NPTH,ComponentDrill
T11C0.1181
%
G90
G05
T1
X5.45Y-3.325
X5.925Y-3.425
X6.55Y-3.525
T3
X5.625Y-2.5
X5.625Y-2.5787
X5.625Y-2.6575
X5.625Y-2.7362
X6.0Y-2.5
X6.0Y-2.5787
X6.0Y-2.6575
X6.0Y-2.7362
X6.375Y-2.5
X6.375Y-2.5787
X6.375Y-2.6575
X6.375Y-2.7362
X6.75Y-4.0716
X6.75Y-4.17
T4
X6.15Y-3.275
X6.45Y-3.275
T5
X5.1427Y-4.0904
X5.2427Y-4.0904
X5.3427Y-4.0904
X5.4427Y-4.0904
X5.5427Y-4.0904
X5.6427Y-4.0904
X5.7427Y-4.0904
X5.8427Y-4.0904
X5.9427Y-4.0904
X6.0427Y-4.0904
T6
X4.5Y-4.85
X4.6Y-4.85
X4.7Y-4.85
X4.8Y-4.85
X4.9Y-4.85
X5.0Y-4.85
X5.05Y-3.125
X5.05Y-3.775
X5.1Y-4.85
X5.15Y-3.125
X5.15Y-3.775
X5.2Y-4.85
X5.25Y-3.125
X5.25Y-3.775
X5.3Y-4.85
X5.35Y-3.125
X5.35Y-3.775
X5.4Y-4.85
X5.45Y-3.125
X5.45Y-3.775
X5.5Y-4.85
X5.55Y-3.125
X5.55Y-3.775
X5.6Y-4.85
X5.65Y-3.125
X5.65Y-3.775
X5.75Y-3.125
X5.75Y-3.775
X5.85Y-3.125
X5.85Y-3.775
X5.95Y-3.125
X5.95Y-3.775
X6.05Y-3.125
X6.05Y-3.775
X6.15Y-3.125
X6.15Y-3.775
X6.25Y-3.125
X6.25Y-3.775
X6.35Y-3.125
X6.35Y-3.775
X6.45Y-3.125
X6.45Y-3.775
T7
X4.6Y-3.675
X4.6Y-3.875
X4.775Y-2.475
X4.775Y-2.575
X4.775Y-2.675
X4.775Y-2.775
X5.2Y-2.475
X5.2Y-2.575
X5.2Y-2.675
X5.2Y-2.775
X6.325Y-4.375
X6.425Y-4.375
X6.525Y-4.375
X6.625Y-4.375
X6.725Y-4.375
T8
X5.05Y-3.0
X5.05Y-3.9
X5.15Y-3.0
X5.15Y-3.9
X5.25Y-3.0
X5.25Y-3.9
X5.35Y-3.0
X5.35Y-3.9
X5.45Y-3.0
X5.45Y-3.9
X5.55Y-3.0
X5.55Y-3.9
X5.65Y-3.0
X5.65Y-3.9
X5.75Y-3.0
X5.75Y-3.9
X5.85Y-3.0
X5.85Y-3.9
X5.95Y-3.0
X5.95Y-3.9
X6.05Y-3.0
X6.05Y-3.9
X6.15Y-3.0
X6.15Y-3.9
X6.25Y-3.0
X6.25Y-3.9
X6.35Y-3.0
X6.35Y-3.9
X6.45Y-3.0
X6.45Y-3.9
T9
X4.3553Y-2.7844
X5.9655Y-4.9458
X6.7136Y-2.7844
T10
X5.245Y-3.48
T11
X5.1539Y-4.575
X6.05Y-4.575
T2
G00X6.6852Y-3.2602
M15
G01X6.6498Y-3.2602
M16
G05
G00X6.6852Y-3.65
M15
G01X6.6498Y-3.65
M16
G05
G00X6.8486Y-3.2602
M15
G01X6.8014Y-3.2602
M16
G05
G00X6.8486Y-3.65
M15
G01X6.8014Y-3.65
M16
G05
T4
G00X4.71Y-4.1646
M15
G01X4.71Y-4.2355
M16
G05
G00X4.8555Y-4.375
M15
G01X4.7846Y-4.375
M16
G05
G00X4.95Y-4.1559
M15
G01X4.95Y-4.2441
M16
G05
T0
M30
