G04 #@! TF.GenerationSoftware,KiCad,Pcbnew,(6.0.6)*
G04 #@! TF.CreationDate,2023-09-07T11:34:38+01:00*
G04 #@! TF.ProjectId,AirQualityPCB,41697251-7561-46c6-9974-795043422e6b,rev?*
G04 #@! TF.SameCoordinates,Original*
G04 #@! TF.FileFunction,Soldermask,Top*
G04 #@! TF.FilePolarity,Negative*
%FSLAX46Y46*%
G04 Gerber Fmt 4.6, Leading zero omitted, Abs format (unit mm)*
G04 Created by KiCad (PCBNEW (6.0.6)) date 2023-09-07 11:34:38*
%MOMM*%
%LPD*%
G01*
G04 APERTURE LIST*
G04 Aperture macros list*
%AMRoundRect*
0 Rectangle with rounded corners*
0 $1 Rounding radius*
0 $2 $3 $4 $5 $6 $7 $8 $9 X,Y pos of 4 corners*
0 Add a 4 corners polygon primitive as box body*
4,1,4,$2,$3,$4,$5,$6,$7,$8,$9,$2,$3,0*
0 Add four circle primitives for the rounded corners*
1,1,$1+$1,$2,$3*
1,1,$1+$1,$4,$5*
1,1,$1+$1,$6,$7*
1,1,$1+$1,$8,$9*
0 Add four rect primitives between the rounded corners*
20,1,$1+$1,$2,$3,$4,$5,0*
20,1,$1+$1,$4,$5,$6,$7,0*
20,1,$1+$1,$6,$7,$8,$9,0*
20,1,$1+$1,$8,$9,$2,$3,0*%
G04 Aperture macros list end*
%ADD10C,0.010000*%
%ADD11O,2.100980X3.503060*%
%ADD12O,1.702200X4.501280*%
%ADD13O,3.503060X2.100980*%
%ADD14RoundRect,0.051000X-1.249680X1.249680X-1.249680X-1.249680X1.249680X-1.249680X1.249680X1.249680X0*%
%ADD15C,2.601360*%
%ADD16RoundRect,0.051000X0.550000X0.225000X-0.550000X0.225000X-0.550000X-0.225000X0.550000X-0.225000X0*%
%ADD17O,2.702000X1.302000*%
%ADD18O,2.202000X1.302000*%
%ADD19C,2.134000*%
%ADD20O,1.829200X2.134000*%
%ADD21C,3.102000*%
%ADD22RoundRect,0.051000X0.999490X0.999490X-0.999490X0.999490X-0.999490X-0.999490X0.999490X-0.999490X0*%
%ADD23C,2.100980*%
%ADD24RoundRect,0.051000X0.850000X-0.850000X0.850000X0.850000X-0.850000X0.850000X-0.850000X-0.850000X0*%
%ADD25O,1.802000X1.802000*%
%ADD26RoundRect,0.051000X-0.850000X0.850000X-0.850000X-0.850000X0.850000X-0.850000X0.850000X0.850000X0*%
%ADD27RoundRect,0.051000X1.016000X-1.016000X1.016000X1.016000X-1.016000X1.016000X-1.016000X-1.016000X0*%
%ADD28RoundRect,0.051000X0.750000X-0.750000X0.750000X0.750000X-0.750000X0.750000X-0.750000X-0.750000X0*%
%ADD29C,1.602000*%
%ADD30RoundRect,0.051000X-1.050290X-1.050290X1.050290X-1.050290X1.050290X1.050290X-1.050290X1.050290X0*%
%ADD31C,2.301640*%
%ADD32RoundRect,0.051000X0.650000X-0.650000X0.650000X0.650000X-0.650000X0.650000X-0.650000X-0.650000X0*%
%ADD33C,1.402000*%
%ADD34C,3.002000*%
G04 APERTURE END LIST*
G36*
X116255696Y-78951674D02*
G01*
X116557327Y-78952708D01*
X116828369Y-78955328D01*
X117058006Y-78959298D01*
X117235422Y-78964384D01*
X117349803Y-78970349D01*
X117390333Y-78976959D01*
X117387586Y-78982600D01*
X117348779Y-79043291D01*
X117267633Y-79164638D01*
X117148659Y-79340048D01*
X116996371Y-79562927D01*
X116815280Y-79826684D01*
X116609901Y-80124726D01*
X116384744Y-80450460D01*
X116144324Y-80797293D01*
X116058752Y-80920610D01*
X115823853Y-81259551D01*
X115606144Y-81574304D01*
X115410078Y-81858394D01*
X115240105Y-82105349D01*
X115100676Y-82308694D01*
X114996241Y-82461956D01*
X114931253Y-82558660D01*
X114910162Y-82592334D01*
X114932745Y-82586681D01*
X115026417Y-82561325D01*
X115182304Y-82518437D01*
X115389148Y-82461128D01*
X115635692Y-82392512D01*
X115910678Y-82315701D01*
X116105078Y-82261827D01*
X116366170Y-82191211D01*
X116593296Y-82131819D01*
X116774596Y-82086665D01*
X116898211Y-82058760D01*
X116952280Y-82051118D01*
X116950275Y-82061321D01*
X116915346Y-82132052D01*
X116843192Y-82263655D01*
X116738313Y-82448574D01*
X116605207Y-82679248D01*
X116448375Y-82948118D01*
X116272316Y-83247626D01*
X116081529Y-83570212D01*
X115880514Y-83908317D01*
X115673770Y-84254382D01*
X115465798Y-84600848D01*
X115261096Y-84940156D01*
X115064164Y-85264746D01*
X114879502Y-85567059D01*
X114711609Y-85839538D01*
X114564985Y-86074621D01*
X114444129Y-86264750D01*
X114397912Y-86328702D01*
X114363589Y-86360000D01*
X114362731Y-86359838D01*
X114361416Y-86346671D01*
X114370897Y-86308186D01*
X114393385Y-86238428D01*
X114431089Y-86131441D01*
X114486219Y-85981273D01*
X114560986Y-85781967D01*
X114657600Y-85527570D01*
X114778271Y-85212128D01*
X114925208Y-84829684D01*
X115100623Y-84374285D01*
X115190950Y-84139345D01*
X115304481Y-83842097D01*
X115404586Y-83577748D01*
X115487823Y-83355505D01*
X115550752Y-83184574D01*
X115589929Y-83074160D01*
X115601914Y-83033469D01*
X115600872Y-83033269D01*
X115551394Y-83048926D01*
X115437390Y-83091965D01*
X115270928Y-83157634D01*
X115064077Y-83241182D01*
X114828906Y-83337855D01*
X114783325Y-83356737D01*
X114493295Y-83476350D01*
X114271499Y-83566089D01*
X114109328Y-83628587D01*
X113998170Y-83666479D01*
X113929416Y-83682400D01*
X113894455Y-83678985D01*
X113884678Y-83658867D01*
X113891473Y-83624681D01*
X113894347Y-83614319D01*
X113915632Y-83532159D01*
X113954650Y-83378624D01*
X114009390Y-83161722D01*
X114077839Y-82889461D01*
X114157987Y-82569850D01*
X114247822Y-82210897D01*
X114345332Y-81820611D01*
X114448506Y-81407000D01*
X114481401Y-81275044D01*
X114583963Y-80863855D01*
X114680779Y-80476047D01*
X114769747Y-80120017D01*
X114848766Y-79804161D01*
X114915734Y-79536877D01*
X114968549Y-79326560D01*
X115005110Y-79181608D01*
X115023315Y-79110417D01*
X115065263Y-78951667D01*
X116227798Y-78951667D01*
X116255696Y-78951674D01*
G37*
D10*
X116255696Y-78951674D02*
X116557327Y-78952708D01*
X116828369Y-78955328D01*
X117058006Y-78959298D01*
X117235422Y-78964384D01*
X117349803Y-78970349D01*
X117390333Y-78976959D01*
X117387586Y-78982600D01*
X117348779Y-79043291D01*
X117267633Y-79164638D01*
X117148659Y-79340048D01*
X116996371Y-79562927D01*
X116815280Y-79826684D01*
X116609901Y-80124726D01*
X116384744Y-80450460D01*
X116144324Y-80797293D01*
X116058752Y-80920610D01*
X115823853Y-81259551D01*
X115606144Y-81574304D01*
X115410078Y-81858394D01*
X115240105Y-82105349D01*
X115100676Y-82308694D01*
X114996241Y-82461956D01*
X114931253Y-82558660D01*
X114910162Y-82592334D01*
X114932745Y-82586681D01*
X115026417Y-82561325D01*
X115182304Y-82518437D01*
X115389148Y-82461128D01*
X115635692Y-82392512D01*
X115910678Y-82315701D01*
X116105078Y-82261827D01*
X116366170Y-82191211D01*
X116593296Y-82131819D01*
X116774596Y-82086665D01*
X116898211Y-82058760D01*
X116952280Y-82051118D01*
X116950275Y-82061321D01*
X116915346Y-82132052D01*
X116843192Y-82263655D01*
X116738313Y-82448574D01*
X116605207Y-82679248D01*
X116448375Y-82948118D01*
X116272316Y-83247626D01*
X116081529Y-83570212D01*
X115880514Y-83908317D01*
X115673770Y-84254382D01*
X115465798Y-84600848D01*
X115261096Y-84940156D01*
X115064164Y-85264746D01*
X114879502Y-85567059D01*
X114711609Y-85839538D01*
X114564985Y-86074621D01*
X114444129Y-86264750D01*
X114397912Y-86328702D01*
X114363589Y-86360000D01*
X114362731Y-86359838D01*
X114361416Y-86346671D01*
X114370897Y-86308186D01*
X114393385Y-86238428D01*
X114431089Y-86131441D01*
X114486219Y-85981273D01*
X114560986Y-85781967D01*
X114657600Y-85527570D01*
X114778271Y-85212128D01*
X114925208Y-84829684D01*
X115100623Y-84374285D01*
X115190950Y-84139345D01*
X115304481Y-83842097D01*
X115404586Y-83577748D01*
X115487823Y-83355505D01*
X115550752Y-83184574D01*
X115589929Y-83074160D01*
X115601914Y-83033469D01*
X115600872Y-83033269D01*
X115551394Y-83048926D01*
X115437390Y-83091965D01*
X115270928Y-83157634D01*
X115064077Y-83241182D01*
X114828906Y-83337855D01*
X114783325Y-83356737D01*
X114493295Y-83476350D01*
X114271499Y-83566089D01*
X114109328Y-83628587D01*
X113998170Y-83666479D01*
X113929416Y-83682400D01*
X113894455Y-83678985D01*
X113884678Y-83658867D01*
X113891473Y-83624681D01*
X113894347Y-83614319D01*
X113915632Y-83532159D01*
X113954650Y-83378624D01*
X114009390Y-83161722D01*
X114077839Y-82889461D01*
X114157987Y-82569850D01*
X114247822Y-82210897D01*
X114345332Y-81820611D01*
X114448506Y-81407000D01*
X114481401Y-81275044D01*
X114583963Y-80863855D01*
X114680779Y-80476047D01*
X114769747Y-80120017D01*
X114848766Y-79804161D01*
X114915734Y-79536877D01*
X114968549Y-79326560D01*
X115005110Y-79181608D01*
X115023315Y-79110417D01*
X115065263Y-78951667D01*
X116227798Y-78951667D01*
X116255696Y-78951674D01*
G36*
X116255696Y-78951674D02*
G01*
X116557327Y-78952708D01*
X116828369Y-78955328D01*
X117058006Y-78959298D01*
X117235422Y-78964384D01*
X117349803Y-78970349D01*
X117390333Y-78976959D01*
X117387586Y-78982600D01*
X117348779Y-79043291D01*
X117267633Y-79164638D01*
X117148659Y-79340048D01*
X116996371Y-79562927D01*
X116815280Y-79826684D01*
X116609901Y-80124726D01*
X116384744Y-80450460D01*
X116144324Y-80797293D01*
X116058752Y-80920610D01*
X115823853Y-81259551D01*
X115606144Y-81574304D01*
X115410078Y-81858394D01*
X115240105Y-82105349D01*
X115100676Y-82308694D01*
X114996241Y-82461956D01*
X114931253Y-82558660D01*
X114910162Y-82592334D01*
X114932745Y-82586681D01*
X115026417Y-82561325D01*
X115182304Y-82518437D01*
X115389148Y-82461128D01*
X115635692Y-82392512D01*
X115910678Y-82315701D01*
X116105078Y-82261827D01*
X116366170Y-82191211D01*
X116593296Y-82131819D01*
X116774596Y-82086665D01*
X116898211Y-82058760D01*
X116952280Y-82051118D01*
X116950275Y-82061321D01*
X116915346Y-82132052D01*
X116843192Y-82263655D01*
X116738313Y-82448574D01*
X116605207Y-82679248D01*
X116448375Y-82948118D01*
X116272316Y-83247626D01*
X116081529Y-83570212D01*
X115880514Y-83908317D01*
X115673770Y-84254382D01*
X115465798Y-84600848D01*
X115261096Y-84940156D01*
X115064164Y-85264746D01*
X114879502Y-85567059D01*
X114711609Y-85839538D01*
X114564985Y-86074621D01*
X114444129Y-86264750D01*
X114397912Y-86328702D01*
X114363589Y-86360000D01*
X114362731Y-86359838D01*
X114361416Y-86346671D01*
X114370897Y-86308186D01*
X114393385Y-86238428D01*
X114431089Y-86131441D01*
X114486219Y-85981273D01*
X114560986Y-85781967D01*
X114657600Y-85527570D01*
X114778271Y-85212128D01*
X114925208Y-84829684D01*
X115100623Y-84374285D01*
X115190950Y-84139345D01*
X115304481Y-83842097D01*
X115404586Y-83577748D01*
X115487823Y-83355505D01*
X115550752Y-83184574D01*
X115589929Y-83074160D01*
X115601914Y-83033469D01*
X115600872Y-83033269D01*
X115551394Y-83048926D01*
X115437390Y-83091965D01*
X115270928Y-83157634D01*
X115064077Y-83241182D01*
X114828906Y-83337855D01*
X114783325Y-83356737D01*
X114493295Y-83476350D01*
X114271499Y-83566089D01*
X114109328Y-83628587D01*
X113998170Y-83666479D01*
X113929416Y-83682400D01*
X113894455Y-83678985D01*
X113884678Y-83658867D01*
X113891473Y-83624681D01*
X113894347Y-83614319D01*
X113915632Y-83532159D01*
X113954650Y-83378624D01*
X114009390Y-83161722D01*
X114077839Y-82889461D01*
X114157987Y-82569850D01*
X114247822Y-82210897D01*
X114345332Y-81820611D01*
X114448506Y-81407000D01*
X114481401Y-81275044D01*
X114583963Y-80863855D01*
X114680779Y-80476047D01*
X114769747Y-80120017D01*
X114848766Y-79804161D01*
X114915734Y-79536877D01*
X114968549Y-79326560D01*
X115005110Y-79181608D01*
X115023315Y-79110417D01*
X115065263Y-78951667D01*
X116227798Y-78951667D01*
X116255696Y-78951674D01*
G37*
X116255696Y-78951674D02*
X116557327Y-78952708D01*
X116828369Y-78955328D01*
X117058006Y-78959298D01*
X117235422Y-78964384D01*
X117349803Y-78970349D01*
X117390333Y-78976959D01*
X117387586Y-78982600D01*
X117348779Y-79043291D01*
X117267633Y-79164638D01*
X117148659Y-79340048D01*
X116996371Y-79562927D01*
X116815280Y-79826684D01*
X116609901Y-80124726D01*
X116384744Y-80450460D01*
X116144324Y-80797293D01*
X116058752Y-80920610D01*
X115823853Y-81259551D01*
X115606144Y-81574304D01*
X115410078Y-81858394D01*
X115240105Y-82105349D01*
X115100676Y-82308694D01*
X114996241Y-82461956D01*
X114931253Y-82558660D01*
X114910162Y-82592334D01*
X114932745Y-82586681D01*
X115026417Y-82561325D01*
X115182304Y-82518437D01*
X115389148Y-82461128D01*
X115635692Y-82392512D01*
X115910678Y-82315701D01*
X116105078Y-82261827D01*
X116366170Y-82191211D01*
X116593296Y-82131819D01*
X116774596Y-82086665D01*
X116898211Y-82058760D01*
X116952280Y-82051118D01*
X116950275Y-82061321D01*
X116915346Y-82132052D01*
X116843192Y-82263655D01*
X116738313Y-82448574D01*
X116605207Y-82679248D01*
X116448375Y-82948118D01*
X116272316Y-83247626D01*
X116081529Y-83570212D01*
X115880514Y-83908317D01*
X115673770Y-84254382D01*
X115465798Y-84600848D01*
X115261096Y-84940156D01*
X115064164Y-85264746D01*
X114879502Y-85567059D01*
X114711609Y-85839538D01*
X114564985Y-86074621D01*
X114444129Y-86264750D01*
X114397912Y-86328702D01*
X114363589Y-86360000D01*
X114362731Y-86359838D01*
X114361416Y-86346671D01*
X114370897Y-86308186D01*
X114393385Y-86238428D01*
X114431089Y-86131441D01*
X114486219Y-85981273D01*
X114560986Y-85781967D01*
X114657600Y-85527570D01*
X114778271Y-85212128D01*
X114925208Y-84829684D01*
X115100623Y-84374285D01*
X115190950Y-84139345D01*
X115304481Y-83842097D01*
X115404586Y-83577748D01*
X115487823Y-83355505D01*
X115550752Y-83184574D01*
X115589929Y-83074160D01*
X115601914Y-83033469D01*
X115600872Y-83033269D01*
X115551394Y-83048926D01*
X115437390Y-83091965D01*
X115270928Y-83157634D01*
X115064077Y-83241182D01*
X114828906Y-83337855D01*
X114783325Y-83356737D01*
X114493295Y-83476350D01*
X114271499Y-83566089D01*
X114109328Y-83628587D01*
X113998170Y-83666479D01*
X113929416Y-83682400D01*
X113894455Y-83678985D01*
X113884678Y-83658867D01*
X113891473Y-83624681D01*
X113894347Y-83614319D01*
X113915632Y-83532159D01*
X113954650Y-83378624D01*
X114009390Y-83161722D01*
X114077839Y-82889461D01*
X114157987Y-82569850D01*
X114247822Y-82210897D01*
X114345332Y-81820611D01*
X114448506Y-81407000D01*
X114481401Y-81275044D01*
X114583963Y-80863855D01*
X114680779Y-80476047D01*
X114769747Y-80120017D01*
X114848766Y-79804161D01*
X114915734Y-79536877D01*
X114968549Y-79326560D01*
X115005110Y-79181608D01*
X115023315Y-79110417D01*
X115065263Y-78951667D01*
X116227798Y-78951667D01*
X116255696Y-78951674D01*
D11*
X119634000Y-106680000D03*
D12*
X125730000Y-106680000D03*
D13*
X122428000Y-111125000D03*
D14*
X116840000Y-93345000D03*
D15*
X116840000Y-98425000D03*
D16*
X168805000Y-89060000D03*
X168805000Y-88410000D03*
X168805000Y-87760000D03*
X168805000Y-87110000D03*
X168805000Y-86460000D03*
D17*
X173355000Y-92710000D03*
D18*
X169355000Y-92710000D03*
D17*
X173355000Y-82810000D03*
D18*
X169355000Y-82810000D03*
D19*
X163830000Y-83185000D03*
X156210000Y-83185000D03*
D20*
X128270000Y-99060000D03*
X130810000Y-99060000D03*
X133350000Y-99060000D03*
X135890000Y-99060000D03*
X138430000Y-99060000D03*
X140970000Y-99060000D03*
X143510000Y-99060000D03*
X146050000Y-99060000D03*
X148590000Y-99060000D03*
X151130000Y-99060000D03*
X153670000Y-99060000D03*
X156210000Y-99060000D03*
X158750000Y-99060000D03*
X161290000Y-99060000D03*
X163830000Y-99060000D03*
X163830000Y-76200000D03*
X161290000Y-76200000D03*
X158750000Y-76200000D03*
X156210000Y-76200000D03*
X153670000Y-76200000D03*
X151130000Y-76200000D03*
X148590000Y-76200000D03*
X146050000Y-76200000D03*
X143510000Y-76200000D03*
X140970000Y-76200000D03*
X138430000Y-76200000D03*
X135890000Y-76200000D03*
X133350000Y-76200000D03*
X130810000Y-76200000D03*
X128270000Y-76200000D03*
D21*
X130910002Y-116205000D03*
X153670000Y-116205000D03*
D22*
X153485006Y-103894999D03*
D23*
X150945006Y-103894999D03*
X148405006Y-103894999D03*
X145865006Y-103894999D03*
X143325006Y-103894999D03*
X140785006Y-103894999D03*
X138245006Y-103894999D03*
X135705006Y-103894999D03*
X133165006Y-103894999D03*
X130625006Y-103894999D03*
D24*
X128270000Y-95885000D03*
D25*
X130810000Y-95885000D03*
X133350000Y-95885000D03*
X135890000Y-95885000D03*
X138430000Y-95885000D03*
X140970000Y-95885000D03*
X143510000Y-95885000D03*
X146050000Y-95885000D03*
X148590000Y-95885000D03*
X151130000Y-95885000D03*
X153670000Y-95885000D03*
X156210000Y-95885000D03*
X158750000Y-95885000D03*
X161290000Y-95885000D03*
X163830000Y-95885000D03*
D26*
X163830000Y-79375000D03*
D25*
X161290000Y-79375000D03*
X158750000Y-79375000D03*
X156210000Y-79375000D03*
X153670000Y-79375000D03*
X151130000Y-79375000D03*
X148590000Y-79375000D03*
X146050000Y-79375000D03*
X143510000Y-79375000D03*
X140970000Y-79375000D03*
X138430000Y-79375000D03*
X135890000Y-79375000D03*
X133350000Y-79375000D03*
X130810000Y-79375000D03*
X128270000Y-79375000D03*
D27*
X121285000Y-70485000D03*
D19*
X121285000Y-67945000D03*
X121285000Y-65405000D03*
X121285000Y-62865000D03*
D28*
X142875000Y-69500000D03*
D29*
X142875000Y-67500000D03*
X142875000Y-65500000D03*
X142875000Y-63500000D03*
D28*
X152400000Y-69500000D03*
D29*
X152400000Y-67500000D03*
X152400000Y-65500000D03*
X152400000Y-63500000D03*
D28*
X161925000Y-69500000D03*
D29*
X161925000Y-67500000D03*
X161925000Y-65500000D03*
X161925000Y-63500000D03*
D27*
X132080000Y-70485000D03*
D19*
X132080000Y-67945000D03*
X132080000Y-65405000D03*
X132080000Y-62865000D03*
D30*
X160655000Y-111125000D03*
D31*
X163195000Y-111125000D03*
X165735000Y-111125000D03*
X168275000Y-111125000D03*
X170815000Y-111125000D03*
D32*
X171450000Y-105918000D03*
D33*
X171450000Y-103418000D03*
D34*
X110624770Y-70723050D03*
X170524763Y-70723050D03*
X151524763Y-125623051D03*
D26*
X142240000Y-123190000D03*
D25*
X139700000Y-123190000D03*
X137160000Y-123190000D03*
X134620000Y-123190000D03*
X132080000Y-123190000D03*
X129540000Y-123190000D03*
X127000000Y-123190000D03*
X124460000Y-123190000D03*
X121920000Y-123190000D03*
X119380000Y-123190000D03*
X116840000Y-123190000D03*
X114300000Y-123190000D03*
G36*
X168221075Y-88670084D02*
G01*
X168236263Y-88680233D01*
X168255199Y-88684000D01*
X169354801Y-88684000D01*
X169373738Y-88680233D01*
X169388773Y-88670186D01*
X169390768Y-88670055D01*
X169391880Y-88671718D01*
X169391793Y-88672447D01*
X169372898Y-88732788D01*
X169391955Y-88797690D01*
X169391483Y-88799633D01*
X169389564Y-88800197D01*
X169388925Y-88799916D01*
X169373737Y-88789767D01*
X169354801Y-88786000D01*
X168255199Y-88786000D01*
X168236262Y-88789767D01*
X168221227Y-88799814D01*
X168219232Y-88799945D01*
X168218120Y-88798282D01*
X168218207Y-88797553D01*
X168237102Y-88737212D01*
X168218045Y-88672310D01*
X168218517Y-88670367D01*
X168220436Y-88669803D01*
X168221075Y-88670084D01*
G37*
G36*
X168221075Y-88020084D02*
G01*
X168236263Y-88030233D01*
X168255199Y-88034000D01*
X169354801Y-88034000D01*
X169373738Y-88030233D01*
X169388773Y-88020186D01*
X169390768Y-88020055D01*
X169391880Y-88021718D01*
X169391793Y-88022447D01*
X169372898Y-88082788D01*
X169391955Y-88147690D01*
X169391483Y-88149633D01*
X169389564Y-88150197D01*
X169388925Y-88149916D01*
X169373737Y-88139767D01*
X169354801Y-88136000D01*
X168255199Y-88136000D01*
X168236262Y-88139767D01*
X168221227Y-88149814D01*
X168219232Y-88149945D01*
X168218120Y-88148282D01*
X168218207Y-88147553D01*
X168237102Y-88087212D01*
X168218045Y-88022310D01*
X168218517Y-88020367D01*
X168220436Y-88019803D01*
X168221075Y-88020084D01*
G37*
G36*
X168221075Y-87370084D02*
G01*
X168236263Y-87380233D01*
X168255199Y-87384000D01*
X169354801Y-87384000D01*
X169373738Y-87380233D01*
X169388773Y-87370186D01*
X169390768Y-87370055D01*
X169391880Y-87371718D01*
X169391793Y-87372447D01*
X169372898Y-87432788D01*
X169391955Y-87497690D01*
X169391483Y-87499633D01*
X169389564Y-87500197D01*
X169388925Y-87499916D01*
X169373737Y-87489767D01*
X169354801Y-87486000D01*
X168255199Y-87486000D01*
X168236262Y-87489767D01*
X168221227Y-87499814D01*
X168219232Y-87499945D01*
X168218120Y-87498282D01*
X168218207Y-87497553D01*
X168237102Y-87437212D01*
X168218045Y-87372310D01*
X168218517Y-87370367D01*
X168220436Y-87369803D01*
X168221075Y-87370084D01*
G37*
G36*
X168221075Y-86720084D02*
G01*
X168236263Y-86730233D01*
X168255199Y-86734000D01*
X169354801Y-86734000D01*
X169373738Y-86730233D01*
X169388773Y-86720186D01*
X169390768Y-86720055D01*
X169391880Y-86721718D01*
X169391793Y-86722447D01*
X169372898Y-86782788D01*
X169391955Y-86847690D01*
X169391483Y-86849633D01*
X169389564Y-86850197D01*
X169388925Y-86849916D01*
X169373737Y-86839767D01*
X169354801Y-86836000D01*
X168255199Y-86836000D01*
X168236262Y-86839767D01*
X168221227Y-86849814D01*
X168219232Y-86849945D01*
X168218120Y-86848282D01*
X168218207Y-86847553D01*
X168237102Y-86787212D01*
X168218045Y-86722310D01*
X168218517Y-86720367D01*
X168220436Y-86719803D01*
X168221075Y-86720084D01*
G37*
M02*
