G04 #@! TF.GenerationSoftware,KiCad,Pcbnew,(6.0.6)*
G04 #@! TF.CreationDate,2023-09-07T11:34:38+01:00*
G04 #@! TF.ProjectId,AirQualityPCB,41697251-7561-46c6-9974-795043422e6b,rev?*
G04 #@! TF.SameCoordinates,Original*
G04 #@! TF.FileFunction,Soldermask,Bot*
G04 #@! TF.FilePolarity,Negative*
%FSLAX46Y46*%
G04 Gerber Fmt 4.6, Leading zero omitted, Abs format (unit mm)*
G04 Created by KiCad (PCBNEW (6.0.6)) date 2023-09-07 11:34:38*
%MOMM*%
%LPD*%
G01*
G04 APERTURE LIST*
G04 Aperture macros list*
%AMRoundRect*
0 Rectangle with rounded corners*
0 $1 Rounding radius*
0 $2 $3 $4 $5 $6 $7 $8 $9 X,Y pos of 4 corners*
0 Add a 4 corners polygon primitive as box body*
4,1,4,$2,$3,$4,$5,$6,$7,$8,$9,$2,$3,0*
0 Add four circle primitives for the rounded corners*
1,1,$1+$1,$2,$3*
1,1,$1+$1,$4,$5*
1,1,$1+$1,$6,$7*
1,1,$1+$1,$8,$9*
0 Add four rect primitives between the rounded corners*
20,1,$1+$1,$2,$3,$4,$5,0*
20,1,$1+$1,$4,$5,$6,$7,0*
20,1,$1+$1,$6,$7,$8,$9,0*
20,1,$1+$1,$8,$9,$2,$3,0*%
G04 Aperture macros list end*
%ADD10O,2.100980X3.503060*%
%ADD11O,1.702200X4.501280*%
%ADD12O,3.503060X2.100980*%
%ADD13RoundRect,0.051000X-1.249680X1.249680X-1.249680X-1.249680X1.249680X-1.249680X1.249680X1.249680X0*%
%ADD14C,2.601360*%
%ADD15C,0.099060*%
%ADD16O,2.702000X1.302000*%
%ADD17O,2.202000X1.302000*%
%ADD18C,2.134000*%
%ADD19O,1.829200X2.134000*%
%ADD20C,3.102000*%
%ADD21RoundRect,0.051000X0.999490X0.999490X-0.999490X0.999490X-0.999490X-0.999490X0.999490X-0.999490X0*%
%ADD22C,2.100980*%
%ADD23RoundRect,0.051000X0.850000X-0.850000X0.850000X0.850000X-0.850000X0.850000X-0.850000X-0.850000X0*%
%ADD24O,1.802000X1.802000*%
%ADD25RoundRect,0.051000X-0.850000X0.850000X-0.850000X-0.850000X0.850000X-0.850000X0.850000X0.850000X0*%
%ADD26RoundRect,0.051000X1.016000X-1.016000X1.016000X1.016000X-1.016000X1.016000X-1.016000X-1.016000X0*%
%ADD27RoundRect,0.051000X0.750000X-0.750000X0.750000X0.750000X-0.750000X0.750000X-0.750000X-0.750000X0*%
%ADD28C,1.602000*%
%ADD29RoundRect,0.051000X-1.050290X-1.050290X1.050290X-1.050290X1.050290X1.050290X-1.050290X1.050290X0*%
%ADD30C,2.301640*%
%ADD31RoundRect,0.051000X0.650000X-0.650000X0.650000X0.650000X-0.650000X0.650000X-0.650000X-0.650000X0*%
%ADD32C,1.402000*%
%ADD33C,3.002000*%
G04 APERTURE END LIST*
D10*
X119634000Y-106680000D03*
D11*
X125730000Y-106680000D03*
D12*
X122428000Y-111125000D03*
D13*
X116840000Y-93345000D03*
D14*
X116840000Y-98425000D03*
D15*
X133223000Y-88392000D03*
D16*
X173355000Y-92710000D03*
D17*
X169355000Y-92710000D03*
D16*
X173355000Y-82810000D03*
D17*
X169355000Y-82810000D03*
D18*
X163830000Y-83185000D03*
X156210000Y-83185000D03*
D19*
X128270000Y-99060000D03*
X130810000Y-99060000D03*
X133350000Y-99060000D03*
X135890000Y-99060000D03*
X138430000Y-99060000D03*
X140970000Y-99060000D03*
X143510000Y-99060000D03*
X146050000Y-99060000D03*
X148590000Y-99060000D03*
X151130000Y-99060000D03*
X153670000Y-99060000D03*
X156210000Y-99060000D03*
X158750000Y-99060000D03*
X161290000Y-99060000D03*
X163830000Y-99060000D03*
X163830000Y-76200000D03*
X161290000Y-76200000D03*
X158750000Y-76200000D03*
X156210000Y-76200000D03*
X153670000Y-76200000D03*
X151130000Y-76200000D03*
X148590000Y-76200000D03*
X146050000Y-76200000D03*
X143510000Y-76200000D03*
X140970000Y-76200000D03*
X138430000Y-76200000D03*
X135890000Y-76200000D03*
X133350000Y-76200000D03*
X130810000Y-76200000D03*
X128270000Y-76200000D03*
D20*
X130910002Y-116205000D03*
X153670000Y-116205000D03*
D21*
X153485006Y-103894999D03*
D22*
X150945006Y-103894999D03*
X148405006Y-103894999D03*
X145865006Y-103894999D03*
X143325006Y-103894999D03*
X140785006Y-103894999D03*
X138245006Y-103894999D03*
X135705006Y-103894999D03*
X133165006Y-103894999D03*
X130625006Y-103894999D03*
D23*
X128270000Y-95885000D03*
D24*
X130810000Y-95885000D03*
X133350000Y-95885000D03*
X135890000Y-95885000D03*
X138430000Y-95885000D03*
X140970000Y-95885000D03*
X143510000Y-95885000D03*
X146050000Y-95885000D03*
X148590000Y-95885000D03*
X151130000Y-95885000D03*
X153670000Y-95885000D03*
X156210000Y-95885000D03*
X158750000Y-95885000D03*
X161290000Y-95885000D03*
X163830000Y-95885000D03*
D25*
X163830000Y-79375000D03*
D24*
X161290000Y-79375000D03*
X158750000Y-79375000D03*
X156210000Y-79375000D03*
X153670000Y-79375000D03*
X151130000Y-79375000D03*
X148590000Y-79375000D03*
X146050000Y-79375000D03*
X143510000Y-79375000D03*
X140970000Y-79375000D03*
X138430000Y-79375000D03*
X135890000Y-79375000D03*
X133350000Y-79375000D03*
X130810000Y-79375000D03*
X128270000Y-79375000D03*
D26*
X121285000Y-70485000D03*
D18*
X121285000Y-67945000D03*
X121285000Y-65405000D03*
X121285000Y-62865000D03*
D27*
X142875000Y-69500000D03*
D28*
X142875000Y-67500000D03*
X142875000Y-65500000D03*
X142875000Y-63500000D03*
D27*
X152400000Y-69500000D03*
D28*
X152400000Y-67500000D03*
X152400000Y-65500000D03*
X152400000Y-63500000D03*
D27*
X161925000Y-69500000D03*
D28*
X161925000Y-67500000D03*
X161925000Y-65500000D03*
X161925000Y-63500000D03*
D26*
X132080000Y-70485000D03*
D18*
X132080000Y-67945000D03*
X132080000Y-65405000D03*
X132080000Y-62865000D03*
D29*
X160655000Y-111125000D03*
D30*
X163195000Y-111125000D03*
X165735000Y-111125000D03*
X168275000Y-111125000D03*
X170815000Y-111125000D03*
D31*
X171450000Y-105918000D03*
D32*
X171450000Y-103418000D03*
D33*
X110624770Y-70723050D03*
X170524763Y-70723050D03*
X151524763Y-125623051D03*
D25*
X142240000Y-123190000D03*
D24*
X139700000Y-123190000D03*
X137160000Y-123190000D03*
X134620000Y-123190000D03*
X132080000Y-123190000D03*
X129540000Y-123190000D03*
X127000000Y-123190000D03*
X124460000Y-123190000D03*
X121920000Y-123190000D03*
X119380000Y-123190000D03*
X116840000Y-123190000D03*
X114300000Y-123190000D03*
M02*
